<svg data-name="Layer 1" xmlns="http://www.w3.org/2000/svg" viewBox="0 0 722.11 675.77"><path d="M453.66 342h-87c-12.5 0-22.5-4.4-29-15.5a30.29 30.29 0 0 1 11.3-41.3 27.1 27.1 0 0 1 4.2-2 32.53 32.53 0 0 1 12.7-2h169.5c12.6 0 17.8-7.1 14.3-19.1-4.9-17.1-11.2-33.6-20.5-48.9a190.36 190.36 0 0 0-38.3-45.6 199.93 199.93 0 0 0-46.8-30.9 185 185 0 0 0-59.1-16.2 187.94 187.94 0 0 0-101.8 16.8c-25.7 11.7-47.3 28.8-65.6 50a190.54 190.54 0 0 0-33.2 56.3c-8.4 22.2-12.1 45-12.6 68.5a30.63 30.63 0 0 1-29.2 29.7 29.36 29.36 0 0 1-31.1-26.5c-1.3-11.5-.1-23.2 1.4-34.7a244.68 244.68 0 0 1 8.3-39.8 267.21 267.21 0 0 1 27.3-61.6 250.31 250.31 0 0 1 125.8-104.1 247 247 0 0 1 41.9-12 263.24 263.24 0 0 1 33-4.1 273.19 273.19 0 0 1 37.3.5 244.06 244.06 0 0 1 52.1 10.3 252.78 252.78 0 0 1 85.7 46.2c27.3 22.6 49.3 49.5 65.2 81.4 9.1 18.3 16.6 37.2 20.7 57.2 4.6 22.8-1 43.3-15.6 61.4-9.9 12.2-22.7 19.6-37.6 23.7-6.8 1.9-13.7 2.2-20.7 2.2q-41.4.15-82.6.1Zm-86.6 222.6c-31.9.2-60.9-4.5-88.8-15a257.56 257.56 0 0 1-132.8-111.1c-7.9-13.2-3.8-31.4 9.1-40.2 13.3-9.1 31.6-6.3 41 6.3 7.3 9.9 13.4 20.5 21.4 29.9a199.19 199.19 0 0 0 48.5 41.6 181.78 181.78 0 0 0 58.8 23.5 199.66 199.66 0 0 0 74.7.9c33.7-5.9 63.1-20.8 89.2-42.4a184.29 184.29 0 0 0 41.2-48.9c5.3-9 12.8-14.8 23.5-16.4 19.8-2.9 37.5 15.5 33.6 35.2-2 10-8.1 17.7-13.5 25.8a236.31 236.31 0 0 1-36.4 42.8 260.9 260.9 0 0 1-58.2 40.6 244.8 244.8 0 0 1-78.6 25c-11.5 1.6-23.1 2.9-32.7 2.4Z"/><path d="M363.36 452.3c-41.9-.4-77.1-16.2-105.2-47.2a134 134 0 0 1-28.3-49.9c-5.3-16.5-8.2-33.3-7.1-50.5 2-30.4 11.9-58.1 31.2-82a138.06 138.06 0 0 1 73.5-47.7q53.25-14.1 102.3 11.3c9 4.6 15.8 10.5 18.8 20.6 3.9 12.9-3.2 29.2-15.5 34.8-9.6 4.4-19 4.4-28.2-.8a79.77 79.77 0 0 0-49.9-10.3c-22.1 2.7-40.7 12.5-54.5 30.5a82.52 82.52 0 0 0-16.3 35.4c-1.7 8.7-1.4 17.5-.3 26.3 1.7 13.6 6.5 26.4 14.8 37 13.2 16.8 30.3 28.1 51.9 31.8 19.4 3.4 37.3-.6 54.1-10.1 21.2-12 45.5 2.5 45.9 25.8.2 11.8-5.8 21.1-16.7 27a154.16 154.16 0 0 1-56.6 17.8c-4.6.7-9.3.2-13.9.2ZM214.16 32.9c-.5 9-6 17.6-15.8 24a302.13 302.13 0 0 0-50.9 41.4 307.6 307.6 0 0 0-54.2 75.3 296.12 296.12 0 0 0-25.4 69 333.13 333.13 0 0 0-7 47.6c-1.6 20-.1 39.7 1.9 59.6 2.1 20.9 7.9 41 13.7 61a29.88 29.88 0 0 1-19.3 36.6 30.49 30.49 0 0 1-38.3-19.7c-.1-.2-.1-.3-.2-.5-5.6-18.4-10.8-36.9-13.7-56a423.4 423.4 0 0 1-4.6-45 365.85 365.85 0 0 1 2.3-60.1 345.62 345.62 0 0 1 15-67.4 370.84 370.84 0 0 1 40.6-84.7 358.74 358.74 0 0 1 35.6-46.6c18.3-20.6 39.1-38.3 61.5-54.2 5.8-4.1 11.5-8.6 18.2-11.2 19.4-7.6 40.7 7.3 40.6 30.9Zm154.1 642.7c-18.7 1.1-30-9.6-33.1-22.2-4.8-19.4 7.8-35.2 25.2-37.5a116 116 0 0 1 14.4-.9c21 0 41.6-3.6 61.9-8.5a296.09 296.09 0 0 0 134.8-73.4 310.74 310.74 0 0 0 47.5-56.7c14.8-23 26.7-47.4 34.5-73.6 1.7-5.5 3.5-11 5.6-16.5 4.5-12 17.2-19.4 30.7-18.3 11.9 1 22.3 10.7 25.8 22.5 3 10-1.1 18.7-3.8 27.6a357.56 357.56 0 0 1-46.5 97.6 367.75 367.75 0 0 1-50.8 59.8 359.68 359.68 0 0 1-71.8 53.1 356.46 356.46 0 0 1-96.6 37.6c-21.4 4.9-43 8.5-65 8.5-4.5 0-8.9 1.6-12.8.9Zm353.7-397.5c-.3 8.8.6 17.6-2.7 26.1-4.9 12.6-18.8 20.5-32.5 18.5-12.9-1.9-23.4-13.5-24.8-26.4-1-9.1.2-18.2-.3-27.3a231.75 231.75 0 0 0-16.6-73.4c-7.4-18.4 1.1-36.1 19.5-41.6 13-3.9 27.5 2.2 34.1 15 6 11.7 9.7 24.4 13.4 36.9 4.4 14.8 6.9 30.1 8.6 45.3 1 8.9 1.8 17.9 1.3 26.9Z" fill="#3d65fe"/></svg>