<svg width="750" height="700" xmlns="http://www.w3.org/2000/svg">
 <title>Drawing</title>

 <g>
  <title>Layer 1</title>
  <g stroke="null" data-name="Layer 2" id="Layer_2">
   <g stroke="null" data-name="Layer 1" id="Layer_1-2">
    <rect x="-203" y="-230" stroke="null" id="svg_1" fill="none" height="1152" width="1152"/>
    <path stroke="null" id="svg_2" fill="#fff" d="m465.6,350.11l-87,0c-12.5,0 -22.5,-4.4 -29,-15.5a30.29,30.29 0 0 1 11.3,-41.3a27.37,27.37 0 0 1 4.2,-2a32.73,32.73 0 0 1 12.7,-2l169.5,0c12.6,0 17.8,-7.1 14.3,-19.1c-4.9,-17.1 -11.2,-33.6 -20.5,-48.9a190.4,190.4 0 0 0 -38.3,-45.6a199.72,199.72 0 0 0 -46.8,-30.9a185,185 0 0 0 -59.1,-16.2a187.87,187.87 0 0 0 -101.8,16.8c-25.7,11.7 -47.3,28.8 -65.6,50a190.37,190.37 0 0 0 -33.2,56.3c-8.4,22.2 -12.1,45 -12.6,68.5a30.63,30.63 0 0 1 -29.2,29.7a29.36,29.36 0 0 1 -31.1,-26.5c-1.3,-11.5 -0.1,-23.2 1.4,-34.7a244.5,244.5 0 0 1 8.3,-39.8a267.64,267.64 0 0 1 27.3,-61.6a250.29,250.29 0 0 1 125.8,-104.1a247.13,247.13 0 0 1 41.9,-12a263.48,263.48 0 0 1 33,-4.1a273.15,273.15 0 0 1 37.3,0.5a244.07,244.07 0 0 1 52.1,10.3a252.7,252.7 0 0 1 85.7,46.2c27.3,22.6 49.3,49.5 65.2,81.4c9.1,18.3 16.6,37.2 20.7,57.2c4.6,22.8 -1,43.3 -15.6,61.4c-9.9,12.2 -22.7,19.6 -37.6,23.7c-6.8,1.9 -13.7,2.2 -20.7,2.2q-41.4,0.15 -82.6,0.1zm-86.6,222.6c-31.9,0.2 -60.9,-4.5 -88.8,-15a257.57,257.57 0 0 1 -132.8,-111.1c-7.9,-13.2 -3.8,-31.4 9.1,-40.2c13.3,-9.1 31.6,-6.3 41,6.3c7.3,9.9 13.4,20.5 21.4,29.9a199.13,199.13 0 0 0 48.5,41.6a181.78,181.78 0 0 0 58.8,23.5a199.65,199.65 0 0 0 74.7,0.9c33.7,-5.9 63.1,-20.8 89.2,-42.4a184.13,184.13 0 0 0 41.2,-48.9c5.3,-9 12.8,-14.8 23.5,-16.4c19.8,-2.9 37.5,15.5 33.6,35.2c-2,10 -8.1,17.7 -13.5,25.8a236.65,236.65 0 0 1 -36.4,42.8a260.9,260.9 0 0 1 -58.2,40.6a244.81,244.81 0 0 1 -78.6,25c-11.5,1.6 -23.1,2.9 -32.7,2.4z"/>
    <path stroke="null" id="svg_3" opacity="0.46" fill="#fff" d="m375.3,460.41c-41.9,-0.4 -77.1,-16.2 -105.2,-47.2a134.11,134.11 0 0 1 -28.3,-49.9c-5.3,-16.5 -8.2,-33.3 -7.1,-50.5c2,-30.4 11.9,-58.1 31.2,-82a138.07,138.07 0 0 1 73.5,-47.7q53.25,-14.1 102.3,11.3c9,4.6 15.8,10.5 18.8,20.6c3.9,12.9 -3.2,29.2 -15.5,34.8c-9.6,4.4 -19,4.4 -28.2,-0.8a79.77,79.77 0 0 0 -49.9,-10.3c-22.1,2.7 -40.7,12.5 -54.5,30.5a82.57,82.57 0 0 0 -16.3,35.4c-1.7,8.7 -1.4,17.5 -0.3,26.3c1.7,13.6 6.5,26.4 14.8,37c13.2,16.8 30.3,28.1 51.9,31.8c19.4,3.4 37.3,-0.6 54.1,-10.1c21.2,-12 45.5,2.5 45.9,25.8c0.2,11.8 -5.8,21.1 -16.7,27a154.19,154.19 0 0 1 -56.6,17.8c-4.6,0.7 -9.3,0.2 -13.9,0.2zm-149.2,-419.41c-0.5,9 -6,17.6 -15.8,24a301.74,301.74 0 0 0 -50.9,41.4a307.72,307.72 0 0 0 -54.2,75.3a296.27,296.27 0 0 0 -25.4,69a332.51,332.51 0 0 0 -7,47.6c-1.6,20 -0.1,39.7 1.9,59.6c2.1,20.9 7.9,41 13.7,61a29.88,29.88 0 0 1 -19.3,36.6a30.49,30.49 0 0 1 -38.3,-19.7c-0.1,-0.2 -0.1,-0.3 -0.2,-0.5c-5.6,-18.4 -10.8,-36.9 -13.7,-56a424.47,424.47 0 0 1 -4.6,-45a366.87,366.87 0 0 1 2.3,-60.1a345.62,345.62 0 0 1 15,-67.4a370.87,370.87 0 0 1 40.6,-84.7a359.25,359.25 0 0 1 35.6,-46.6c18.3,-20.6 39.1,-38.3 61.5,-54.2c5.8,-4.1 11.5,-8.6 18.2,-11.2c19.4,-7.6 40.7,7.3 40.6,30.9zm154.1,642.7c-18.7,1.1 -30,-9.6 -33.1,-22.2c-4.8,-19.4 7.8,-35.2 25.2,-37.5a115.63,115.63 0 0 1 14.4,-0.9c21,0 41.6,-3.6 61.9,-8.5a296.09,296.09 0 0 0 134.8,-73.4a310.61,310.61 0 0 0 47.5,-56.7c14.8,-23 26.7,-47.4 34.5,-73.6c1.7,-5.5 3.5,-11 5.6,-16.5c4.5,-12 17.2,-19.4 30.7,-18.3c11.9,1 22.3,10.7 25.8,22.5c3,10 -1.1,18.7 -3.8,27.6a357.42,357.42 0 0 1 -46.5,97.6a367.23,367.23 0 0 1 -50.8,59.8a364.36,364.36 0 0 1 -168.4,90.71c-21.4,4.9 -43,8.5 -65,8.5c-4.5,0 -8.9,1.6 -12.8,0.9l0,-0.01zm353.7,-397.5c-0.3,8.8 0.6,17.6 -2.7,26.1c-4.9,12.6 -18.8,20.5 -32.5,18.5c-12.9,-1.9 -23.4,-13.5 -24.8,-26.4c-1,-9.1 0.2,-18.2 -0.3,-27.3a231.68,231.68 0 0 0 -16.6,-73.4c-7.4,-18.4 1.1,-36.1 19.5,-41.6c13,-3.9 27.5,2.2 34.1,15c6,11.7 9.7,24.4 13.4,36.9c4.4,14.8 6.9,30.1 8.6,45.3c1,8.9 1.8,17.9 1.3,26.9z"/>
   </g>
  </g>
 </g>
</svg>